<?xml version="1.0" encoding="utf-8"?>
<svg version="1.1" xmlns="http://www.w3.org/2000/svg" xmlns:xlink="http://www.w3.org/1999/xlink" x="0px" y="0px"
     width="124" height="24" viewBox="0 0 124 24" style="enable-background:new 0 0 124 24;" xml:space="preserve" id="icon-loader">
<g>
    <path d="M61.7,19.4h1h53.9c0.5,0,0.9-0.3,1.2-0.6c0.3-0.3,0.5-0.9,0.5-1.3v-0.1c0.1-0.5-0.2-0.9-0.5-1.2
        c-0.1-0.1-0.1-0.1-0.1-0.1c0.4-0.3,0.6-0.8,0.6-1.3l0,0c-0.1-5.2-4.5-9.8-10-9.8H62.7h-1 M62.6,5h-0.2h-0.8h-5.7H15.7
        c-5.5,0-10,4.6-10,9.8l0,0c0,0.5,0.2,1,0.6,1.3c-0.1,0.1-0.2,0.1-0.2,0.1c-0.3,0.3-0.6,0.8-0.6,1.2v0.1c0,0.5,0.3,1,0.6,1.3
        c0.3,0.3,0.8,0.6,1.3,0.6h48.4h5.7h0.8h0.2 M116.9,12.3c-0.5,0-1.3-0.1-1.8-0.2c-0.2,0-0.4-0.1-0.5-0.3l0,0l-2.8-2.8h3.2
        C115.9,10.2,116.5,11.1,116.9,12.3z M108.3,6c2.4,0,4.6,0.5,6.2,2.6h-2.8c-0.2,0-0.3-0.1-0.4,0.1c-0.1,0.1-0.2,0.2-0.2,0.4
        c0,0.2,0.1,0.3,0.2,0.4l0,0l3,2.9l0,0c0.2,0.3,0.6,0.4,0.9,0.4c0.5,0,1.3,0,1.9,0c0.2,0.7,0.3,1.3,0.3,2c0,0.3-0.1,0.6-0.3,0.7
        c-0.2,0.2-0.4,0.4-0.7,0.4H88V8.6h-0.5l0,0h-5.2l0,0h-0.5v7.2H62.7V6H108.3z M87.4,15.8h-5.2V9.1h5.2V15.8z M61.7,6v9.8 M62.7,15.8
        V6 M8.9,9.1h3.2L9.3,12l0,0c-0.2,0.2-0.4,0.3-0.5,0.3c-0.5,0-1.2,0.1-1.8,0.2C7.5,11.1,8.1,10.2,8.9,9.1z M6.9,12.7
        c0.5,0,1.4,0,1.9,0c0.4,0,0.7-0.2,0.9-0.4l0,0l3-2.9l0,0c0.1-0.1,0.2-0.3,0.2-0.4c0-0.2-0.1-0.3-0.2-0.4c-0.1-0.1-0.3-0.1-0.4-0.1
        H9.4C11,6.5,13.2,6,15.7,6h40.2h5.8v9.8h-5.8H42.1V8.6h-0.5l0,0h-5.2l0,0h-0.5v7.2H7.7c-0.3,0-0.5-0.2-0.7-0.4
        c-0.2-0.2-0.3-0.5-0.3-0.7C6.7,14.1,6.8,13.4,6.9,12.7z M41.5,15.8h-5.2V9.1h5.2V15.8z M55.8,18.4H7.4c-0.2,0-0.5-0.2-0.6-0.3
        c-0.2-0.2-0.3-0.4-0.3-0.6v-0.1c0-0.2,0.2-0.3,0.3-0.5c0.2-0.2,0.4-0.1,0.6-0.1h0.3h48.2h5.8v1.5H55.8z M62.7,18.4v-1.5 M61.7,16.9
        v1.5 M117.3,17.5c0,0.2-0.1,0.5-0.3,0.6c-0.2,0.2-0.3,0.3-0.5,0.3H62.7v-1.5h53.6h0.3c0.2,0,0.4-0.1,0.5,0.1
        C117.2,17.1,117.3,17.2,117.3,17.5L117.3,17.5z"/>
    <path d="M90.9,12.7h19c0.2,0,0.4-0.1,0.5-0.2c0.1-0.1,0.3-0.3,0.3-0.5c0-0.1-0.1-0.3-0.2-0.4l0,0l-3.1-3l0,0
        c-0.2-0.2-0.4-0.2-0.5-0.2L90.6,8.5v0.1h-0.1v4.1L90.9,12.7L90.9,12.7z M107,9L107,9l3.1,3c0,0-0.1,0.1-0.1,0.1
        c-0.1,0.1,0,0.1-0.1,0.1H91V8.9h15.8C107,8.9,106.9,9,107,9z"/>
    <path d="M65.3,12.7h0.1h0.3h14.1v-0.1v-0.5V8.9V8.4v0.2H65.3l0,0l0,0V12.7z M79.2,12.2H65.8V9.1h13.4V12.2z"/>
    <path d="M14.1,12.7l19,0.1l0,0h0.7V8.6h-0.5V8.5L17.2,8.5c-0.2,0-0.4,0.1-0.5,0.2l0,0l-3.1,3l0,0
        c-0.1,0.1-0.2,0.2-0.2,0.4c0,0.2,0.1,0.4,0.3,0.5C13.8,12.6,13.9,12.7,14.1,12.7z M17,9L17,9c0.1-0.1,0.2-0.1,0.3-0.1h16v3.2H14.2
        c-0.1,0-0.2,0-0.2-0.1c-0.1-0.1-0.1-0.1-0.1-0.1L17,9z"/>
    <path d="M58.6,12.7h0.5V8.6h-0.5l0,0H44.1V8.4v0.5v3.3v0.5v0.1h14.2H58.6z M44.6,12.2V9.1h13.9v3.1H44.6z"/>
</g>
</svg>
